<svg width="96" height="96" viewBox="0 0 96 96" fill="none" xmlns="http://www.w3.org/2000/svg">
<path d="M28 31C28 35.9706 32.0294 40 37 40V46C28.7157 46 22 39.2843 22 31H28ZM37 40C41.9706 40 46 35.9706 46 31H52C52 39.2843 45.2843 46 37 46V40ZM46 31C46 26.0294 41.9706 22 37 22V16C45.2843 16 52 22.7157 52 31H46ZM37 22C32.0294 22 28 26.0294 28 31H22C22 22.7157 28.7157 16 37 16V22ZM49 58H25V52H49V58ZM25 76H49V82H25V76ZM49 76C53.9706 76 58 71.9706 58 67H64C64 75.2843 57.2843 82 49 82V76ZM16 67C16 71.9706 20.0294 76 25 76V82C16.7157 82 10 75.2843 10 67H16ZM25 58C20.0294 58 16 62.0294 16 67H10C10 58.7157 16.7157 52 25 52V58ZM49 52C57.2843 52 64 58.7157 64 67H58C58 62.0294 53.9706 58 49 58V52Z" fill="white"/>
<path d="M53.9914 41.5546C54.6223 40.5411 55.8062 40 57 40C61.9706 40 66 35.9706 66 31C66 26.0294 61.9706 22 57 22C55.8062 22 54.6223 21.4589 53.9914 20.4454C53.9635 20.4006 53.9355 20.3559 53.9072 20.3113C52.8568 18.6532 53.389 16.3056 55.34 16.0908C55.8851 16.0308 56.4389 16 57 16C65.2843 16 72 22.7157 72 31C72 39.2843 65.2843 46 57 46C56.4389 46 55.8851 45.9692 55.34 45.9092C53.389 45.6944 52.8568 43.3468 53.9072 41.6887C53.9355 41.6441 53.9635 41.5994 53.9914 41.5546Z" fill="white"/>
<path d="M66.1668 73.2675C66.6209 72.5099 67.4224 72 68.3057 72H69C73.9706 72 78 67.9706 78 63C78 58.0294 73.9706 54 69 54H68.3057C67.4224 54 66.6209 53.4901 66.1668 52.7325C65.0584 50.8833 66.2613 48 68.4172 48H69C77.2843 48 84 54.7157 84 63C84 71.2843 77.2843 78 69 78H68.4172C66.2613 78 65.0584 75.1167 66.1668 73.2675Z" fill="white"/>
</svg>
